<svg width="202" height="202" viewBox="0 0 202 202" fill="none" xmlns="http://www.w3.org/2000/svg">
<circle cx="101" cy="101" r="101" fill="white"/>
<path d="M99.1753 109.686C75.448 109.686 56.3344 91.0173 56.3344 67.8428C56.3344 44.6683 75.448 26 99.1753 26C122.903 26 142.016 44.6683 142.016 67.8428C142.016 91.0173 122.903 109.686 99.1753 109.686ZM99.1753 38.8747C82.698 38.8747 69.5162 51.7494 69.5162 67.8428C69.5162 83.9362 82.698 96.8109 99.1753 96.8109C115.653 96.8109 128.834 83.9362 128.834 67.8428C128.834 51.7494 115.653 38.8747 99.1753 38.8747Z" fill="black"/>
<path d="M41.1805 160.541V190.635H28V160.541C28 135.113 59.9653 115.48 100.5 115.48C141.035 115.48 173 135.113 173 160.541V190.635H159.819V160.541C159.819 143.16 132.795 128.354 100.5 128.354C68.2049 128.354 41.1805 143.16 41.1805 160.541Z" fill="black"/>
</svg>
