<svg width="192" height="191" viewBox="0 0 192 191" fill="none" xmlns="http://www.w3.org/2000/svg">
<ellipse cx="94.3474" cy="79.2594" rx="79.008" ry="78.5839" fill="#7C7C7C" fill-opacity="0.5"/>
<path d="M42.4529 96.4676L43.5959 63.9117C43.6213 63.1868 43.4931 62.5847 43.211 62.1053C42.9732 61.5847 42.5456 60.9935 41.9285 60.3317C41.3113 59.6698 40.8109 59.3323 40.4271 59.3189C39.5743 59.2893 38.4144 60.1029 36.9473 61.7596C37.0378 62.8301 37.0621 63.9623 37.0202 65.1562L35.9288 96.241L27.1021 95.9345L28.0633 68.5593C28.1905 64.9349 28.0237 62.3889 27.563 60.9214C27.1448 59.4553 26.1821 57.6928 24.6747 55.6339L32.5387 50.5278C33.8688 51.5559 34.8084 52.7626 35.3574 54.1478C38.5099 51.9093 40.7258 50.8122 42.005 50.8566C43.2842 50.9011 45.6358 52.6264 49.0597 56.0326C52.7142 52.8722 55.2663 51.3172 56.7161 51.3676C57.7821 51.4046 59.5547 52.5975 62.0338 54.9463C64.5571 57.254 66.122 58.8879 66.7287 59.8483C67.3369 60.7659 67.6148 61.971 67.5624 63.4634L66.3745 97.2985L57.5478 96.9919L58.6908 64.436C58.7192 63.6258 58.5917 63.0024 58.3082 62.5656C58.0262 62.0862 57.5339 61.5141 56.8315 60.8493C56.1717 60.186 55.5646 59.8447 55.0103 59.8255C54.4986 59.8077 53.6424 60.4824 52.4417 61.8495C52.4769 62.0642 52.4855 62.4274 52.4675 62.9391L51.2796 96.7742L42.4529 96.4676ZM91.3985 94.7736C88.2736 97.4401 85.9437 98.7467 84.4086 98.6934C82.8735 98.6401 80.6196 97.1743 77.6468 94.296C74.7181 91.3766 72.9219 89.0302 72.2584 87.2567C71.8283 86.1318 71.6918 83.3307 71.849 78.8534L72.114 71.3061C72.2712 66.8289 72.6038 64.0441 73.1118 62.9517C73.898 61.2286 75.8536 59.0338 78.9784 56.3674C82.1474 53.6597 84.4994 52.3326 86.0344 52.3859C87.5695 52.4392 89.8014 53.9256 92.7301 56.845C95.7029 59.7233 97.5211 62.0491 98.1846 63.8226C98.6148 64.9475 98.7512 67.7486 98.594 72.2258L98.3291 79.7732C98.1719 84.2504 97.8393 87.0352 97.3313 88.1276C96.545 89.8507 94.5674 92.066 91.3985 94.7736ZM82.6 88.1923C83.4228 89.0747 84.1328 89.5263 84.7297 89.547C85.3267 89.5677 86.0453 89.1658 86.8854 88.3411C87.7696 87.4753 88.3958 86.6645 88.7639 85.9088C89.1335 85.1105 89.3796 82.9631 89.5024 79.4666L89.7674 71.9193C89.8901 68.4227 89.7944 66.2848 89.4802 65.5054C89.1675 64.6834 88.5998 63.8312 87.7769 62.9488C86.9981 62.0252 86.3103 61.553 85.7133 61.5323C85.1163 61.5115 84.3757 61.9341 83.4915 62.7999C82.6514 63.6246 82.0465 64.4361 81.6769 65.2344C81.3089 65.9901 81.0634 68.1162 80.9407 71.6127L80.6757 79.16C80.5529 82.6565 80.6479 84.8158 80.9606 85.6378C81.2748 86.4172 81.8212 87.2687 82.6 88.1923ZM101.546 79.1164L101.757 73.1041C101.944 67.7741 102.49 64.3777 103.395 62.9149C104.3 61.4521 106.184 59.4896 109.045 57.0275C111.949 54.5668 114.084 53.3601 115.448 53.4075C117.793 53.489 120.432 54.9468 123.364 57.7809C126.297 60.5724 128.112 63.6026 128.808 66.8714L121.535 71.5498C120.934 69.2235 119.921 67.075 118.496 65.1044C117.072 63.0911 116.062 62.0741 115.465 62.0533C114.399 62.0163 113.147 63.0188 111.709 65.0608C111.126 65.8517 110.751 68.635 110.583 73.4107L110.372 79.423C110.2 84.3267 110.379 87.1292 110.91 87.8307C112.201 89.9675 113.379 91.0544 114.445 91.0914C115.042 91.1122 116.116 90.317 117.667 88.7058C119.219 87.0521 120.373 85.2136 121.127 83.1906L128.051 88.4261C127.138 91.3402 125.124 93.9812 122.01 96.3492C118.897 98.6745 116.168 99.7965 113.822 99.715C112.458 99.6676 110.413 98.3158 107.689 95.6597C105.007 93.005 103.266 90.9166 102.466 89.3946C101.665 87.8725 101.358 84.4465 101.546 79.1164ZM144.295 68.1137L144.165 71.8235L146.084 71.8901C146.808 71.9153 147.568 71.5574 148.363 70.8166C149.201 70.0345 149.824 69.3091 150.232 68.6402C150.684 67.9301 151.182 65.9195 151.725 62.6083C152.269 59.2545 152.566 56.8741 152.616 55.467L161.443 55.7735C161.384 57.4365 161.058 60.0294 160.465 63.5523C159.872 67.0752 159.369 69.235 158.957 70.0318C158.268 71.4168 156.581 73.258 153.896 75.5555C156.832 78.2617 158.716 80.5258 159.549 82.3478C159.944 83.2581 160.275 85.9806 160.543 90.5152C160.855 95.0088 160.972 98.3642 160.894 100.581L152.067 100.275C152.138 98.2708 152.034 95.1293 151.758 90.8505C151.525 86.5305 151.229 84.0227 150.869 83.3271C149.631 80.8933 148.117 79.6454 146.326 79.5831L143.895 79.4987L143.177 99.9661L134.35 99.6595L135.334 71.6448C135.455 68.1909 135.283 65.7942 134.818 64.4546C134.396 63.0738 133.431 61.3752 131.923 59.359L139.787 54.2529C141.12 55.1957 142.234 56.8994 143.129 59.364C144.026 61.7859 144.415 64.7025 144.295 68.1137Z" fill="#865746" fill-opacity="0.72"/>
<path d="M29.029 113.406L27.2634 137.598C27.0895 139.981 27.0836 141.819 27.2459 143.113C27.4538 144.367 27.9245 145.831 28.6579 147.505C29.3944 149.136 29.9117 149.962 30.2097 149.982C30.5502 150.005 31.2037 149.258 32.17 147.74C33.1395 146.18 33.8182 144.793 34.2063 143.579C34.5975 142.322 34.88 140.502 35.0539 138.12L35.5524 131.29C35.8133 127.715 35.7396 125.209 35.3312 123.77C34.9685 122.292 34.0757 120.458 32.6527 118.267L40.7069 113.419C42.0008 114.446 43.0442 116.269 43.837 118.888C44.6298 121.507 44.8957 124.603 44.6349 128.178L43.8662 138.71C43.6239 142.029 43.1043 144.752 42.3074 146.88C41.5135 148.965 39.5496 151.548 36.4156 154.631C33.3242 157.717 31.0548 159.211 29.6073 159.114C28.7133 159.054 27.5165 158.161 26.0168 156.436C24.5597 154.713 23.1866 152.719 21.8976 150.451C20.2035 152.561 18.5099 154.372 16.8168 155.884C15.1693 157.356 13.8985 158.062 13.0046 158.002C11.5571 157.905 9.50557 156.121 6.84987 152.65C4.23674 149.183 2.68854 146.364 2.20526 144.193C1.72508 141.98 1.60612 139.214 1.84837 135.895L3.614 111.703L12.4262 112.294L10.6606 136.485C10.4587 139.251 10.468 141.176 10.6883 142.26C10.9087 143.344 11.3856 144.723 12.119 146.397C12.8555 148.028 13.3727 148.854 13.6707 148.874C14.0113 148.897 14.6648 148.149 15.6311 146.632C16.6005 145.072 17.258 143.684 17.6035 142.467C17.9947 141.21 18.2772 139.39 18.4512 137.007L20.2168 112.816L29.029 113.406ZM58.6134 132.963L70.0438 133.729L69.4801 141.452L58.0497 140.686L57.1925 152.431L72.4543 153.454L71.8906 161.177L47.8165 159.564L50.6863 120.245L59.9458 114.708L74.1858 115.662L73.6175 123.449L61.7401 122.653L59.2563 124.154L58.6134 132.963ZM88.0514 120.118C91.1171 117.972 93.2246 116.937 94.3741 117.014C95.5661 117.094 97.3569 118.347 99.7466 120.774C102.182 123.16 103.685 124.843 104.255 125.822C104.828 126.759 105.039 128.269 104.887 130.354C104.735 132.44 104.3 133.993 103.584 135.014C102.871 135.992 101.604 137.233 99.7831 138.736C102.304 141.128 104.063 143.106 105.061 144.67C105.473 145.467 105.602 146.93 105.447 149.057C105.295 151.143 104.961 152.489 104.446 153.095C103.559 154.704 101.552 156.707 98.4247 159.106C95.301 161.463 92.8877 162.584 91.1848 162.47L77.9665 161.584L79.9604 134.265C80.2119 130.818 80.1335 128.375 79.7252 126.937C79.3594 125.501 78.4588 123.773 77.0234 121.753L85.8811 116.445C86.8407 117.365 87.5641 118.589 88.0514 120.118ZM88.1949 142.77L87.3424 154.451L91.7485 154.746C92.3019 154.783 93.0141 154.403 93.8851 153.607C94.7592 152.767 95.3898 152.04 95.777 151.424C96.2098 150.769 96.5007 149.42 96.6498 147.378C96.7523 145.973 95.7859 144.562 93.7505 143.142L88.1949 142.77ZM89.0428 131.153L88.712 135.685L91.9687 135.903C92.437 135.935 93.0412 135.569 93.7814 134.806C94.5672 134.003 95.1111 133.291 95.4132 132.67C95.7152 132.049 95.8988 131.292 95.964 130.398C96.0292 129.504 95.6765 128.476 94.9058 127.312C94.1383 126.107 93.3926 125.479 92.6689 125.431C91.9452 125.382 90.7969 125.583 89.2239 126.034C89.2305 127.702 89.1701 129.408 89.0428 131.153ZM120.758 118.782C121.312 118.819 122.525 119.777 124.399 121.655C126.272 123.534 127.184 124.814 127.135 125.495C127.088 126.133 125.085 128.073 121.127 131.314C117.169 134.555 114.977 136.162 114.551 136.133C114.423 136.125 114.141 135.892 113.704 135.435C113.309 134.981 113.119 134.648 113.135 134.435C113.154 134.18 114.301 132.225 116.579 128.572C114.371 126.585 113.292 125.252 113.341 124.571C113.391 123.89 114.501 122.746 116.672 121.138C118.843 119.53 120.205 118.745 120.758 118.782ZM145.09 122.721C146.495 122.815 148.45 124.165 150.955 126.77C153.506 129.336 155.233 131.461 156.136 133.147C156.549 133.944 156.656 135.704 156.457 138.428C156.261 141.109 155.854 142.877 155.235 143.734C154.62 144.548 152.153 146.114 147.834 148.433C143.518 150.71 140.801 152.474 139.683 153.724C139.308 154.17 139.075 155.031 138.981 156.307L138.814 158.605L154.65 159.666L154.138 166.687L129.489 165.036L130.123 156.355C130.306 153.844 130.739 152.013 131.422 150.862C132.105 149.71 133.506 148.393 135.625 146.91C137.747 145.384 140.055 143.936 142.551 142.563C145.05 141.149 146.548 140.265 147.044 139.914C147.54 139.562 147.826 138.876 147.9 137.854C147.975 136.833 147.894 135.887 147.658 135.016C147.468 134.105 147.019 133.22 146.312 132.36C145.608 131.458 144.936 130.985 144.298 130.942C143.702 130.902 142.664 131.645 141.183 133.171C139.706 134.654 138.683 136.36 138.115 138.289L131.516 133.742C132.311 131.059 134.187 128.512 137.143 126.101C140.142 123.694 142.791 122.567 145.09 122.721ZM182.673 168.599L174.5 168.052L175.161 158.988L167.051 158.444L160.079 153.744C161.249 150.016 162.904 145.808 165.043 141.12C167.228 136.391 169.226 132.463 171.037 129.334C172.848 126.206 173.988 124.657 174.456 124.688C175.137 124.734 177.045 125.845 180.18 128.022C183.319 130.157 185.035 131.555 185.329 132.216L183.847 152.514L186.401 152.685L185.889 159.706L183.335 159.535L182.673 168.599ZM175.674 151.966L176.997 133.839C174.657 138.343 172.109 144.244 169.352 151.543L175.674 151.966Z" fill="white"/>
<path d="M32.4506 114.529L30.5233 138.707C30.3335 141.088 30.3154 142.926 30.4691 144.219C30.6688 145.473 31.1298 146.938 31.8524 148.613C32.5783 150.246 33.0902 151.072 33.3882 151.093C33.7287 151.116 34.3874 150.371 35.3642 148.856C36.3443 147.299 37.0326 145.914 37.4288 144.702C37.8285 143.446 38.1233 141.628 38.3131 139.246L38.8572 132.421C39.142 128.848 39.0849 126.342 38.686 124.904C38.333 123.425 37.4521 121.589 36.0432 119.396L44.1324 114.569C45.42 115.599 46.4516 117.423 47.2273 120.043C48.0029 122.663 48.2483 125.759 47.9636 129.331L47.1245 139.857C46.8601 143.174 46.3222 145.895 45.5108 148.02C44.7028 150.102 42.721 152.68 39.5654 155.755C36.4523 158.832 34.1722 160.32 32.7249 160.22C31.831 160.158 30.6396 159.263 29.1509 157.535C27.7047 155.809 26.3445 153.812 25.0701 151.543C23.3614 153.648 21.6551 155.454 19.9513 156.961C18.2934 158.429 17.0176 159.131 16.1237 159.069C14.6764 158.969 12.636 157.181 10.0024 153.706C7.41145 150.233 5.88146 147.412 5.41246 145.241C4.94684 143.028 4.84624 140.263 5.11067 136.945L7.03792 112.768L15.8493 113.378L13.9221 137.556C13.7017 140.321 13.6982 142.245 13.9114 143.329C14.1246 144.412 14.5925 145.792 15.315 147.467C16.0409 149.1 16.5529 149.926 16.8508 149.947C17.1914 149.97 17.85 149.225 18.8268 147.71C19.807 146.153 20.4739 144.767 20.8276 143.551C21.2273 142.296 21.522 140.478 21.7119 138.096L23.6391 113.918L32.4506 114.529ZM61.9152 134.147L73.3445 134.939L72.7292 142.658L61.2999 141.866L60.3642 153.604L75.6246 154.661L75.0093 162.38L50.9375 160.712L54.0699 121.415L63.3695 115.902L77.6082 116.889L76.9879 124.671L65.1116 123.848L62.6169 125.343L61.9152 134.147ZM91.4491 121.376C94.5301 119.237 96.6453 118.208 97.7946 118.287C98.9865 118.37 100.77 119.627 103.144 122.058C105.564 124.449 107.056 126.135 107.62 127.115C108.188 128.052 108.388 129.563 108.222 131.647C108.056 133.731 107.611 135.282 106.888 136.301C106.168 137.278 104.892 138.515 103.061 140.013C105.566 142.41 107.313 144.392 108.301 145.957C108.709 146.755 108.827 148.217 108.658 150.344C108.492 152.428 108.149 153.772 107.63 154.378C106.732 155.983 104.71 157.981 101.567 160.372C98.426 162.72 96.0044 163.835 94.3017 163.717L81.0846 162.801L83.261 135.498C83.5356 132.053 83.4734 129.611 83.0745 128.172C82.7181 126.736 81.8287 125.007 80.4063 122.984L89.3024 117.699C90.2562 118.62 90.9718 119.846 91.4491 121.376ZM91.4419 144.019L90.5113 155.693L94.917 155.998C95.4704 156.037 96.1853 155.659 97.0619 154.864C97.9419 154.027 98.5776 153.301 98.969 152.687C99.4063 152.033 99.7063 150.685 99.8691 148.644C99.9809 147.241 99.0235 145.827 96.9969 144.404L91.4419 144.019ZM92.3673 132.408L92.0063 136.938L95.2627 137.163C95.7309 137.196 96.3378 136.832 97.0833 136.071C97.8747 135.27 98.4236 134.56 98.7298 133.94C99.0361 133.32 99.2248 132.563 99.296 131.67C99.3672 130.777 99.0212 129.748 98.258 128.583C97.4982 127.376 96.7564 126.747 96.0328 126.697C95.3092 126.647 94.1591 126.845 92.5826 127.292C92.5781 128.959 92.5063 130.665 92.3673 132.408ZM124.176 120.116C124.73 120.154 125.937 121.114 127.799 122.997C129.661 124.879 130.564 126.161 130.51 126.841C130.459 127.479 128.443 129.413 124.462 132.644C120.481 135.875 118.277 137.475 117.851 137.446C117.724 137.437 117.443 137.204 117.008 136.746C116.617 136.291 116.429 135.957 116.446 135.745C116.466 135.49 117.628 133.539 119.93 129.892C117.735 127.901 116.664 126.566 116.718 125.885C116.773 125.205 117.891 124.063 120.073 122.461C122.255 120.859 123.623 120.077 124.176 120.116ZM148.491 124.11C149.895 124.207 151.842 125.561 154.33 128.171C156.865 130.741 158.579 132.87 159.471 134.557C159.879 135.355 159.974 137.115 159.757 139.837C159.543 142.516 159.124 144.283 158.5 145.138C157.878 145.95 155.4 147.51 151.064 149.818C146.732 152.084 144.002 153.841 142.875 155.088C142.498 155.533 142.258 156.393 142.156 157.668L141.973 159.965L157.808 161.062L157.249 168.08L132.602 166.372L133.294 157.696C133.494 155.187 133.939 153.357 134.63 152.208C135.321 151.058 136.731 149.745 138.861 148.267C140.994 146.747 143.313 145.304 145.819 143.938C148.328 142.53 149.832 141.651 150.331 141.3C150.829 140.95 151.119 140.265 151.201 139.244C151.282 138.223 151.208 137.277 150.978 136.406C150.793 135.495 150.35 134.609 149.649 133.748C148.95 132.844 148.282 132.37 147.643 132.326C147.047 132.285 146.004 133.025 144.513 134.547C143.025 136.026 141.991 137.729 141.409 139.656L134.839 135.095C135.651 132.415 137.545 129.873 140.518 127.47C143.535 125.071 146.192 123.951 148.491 124.11ZM185.781 170.057L177.609 169.491L178.331 160.432L170.222 159.87L163.278 155.155C164.474 151.432 166.157 147.23 168.328 142.548C170.545 137.826 172.57 133.904 174.402 130.781C176.235 127.658 177.385 126.112 177.854 126.145C178.535 126.192 180.436 127.307 183.558 129.491C186.683 131.632 188.39 133.033 188.68 133.695L187.063 153.981L189.617 154.158L189.058 161.175L186.504 160.998L185.781 170.057ZM178.89 153.415L180.334 135.297C177.964 139.794 175.376 145.687 172.569 152.977L178.89 153.415Z" fill="#865746"/>
</svg>
